<?xml version="1.0" encoding="utf-8"?>
<!-- Generator: Adobe Illustrator 21.0.2, SVG Export Plug-In . SVG Version: 6.00 Build 0)  -->
<svg version="1.1" id="Layer_1" xmlns="http://www.w3.org/2000/svg" xmlns:xlink="http://www.w3.org/1999/xlink" x="0px" y="0px"
	 viewBox="0 0 1116 317" style="enable-background:new 0 0 1116 317;" xml:space="preserve">
<style type="text/css">
	.st0{opacity:0.28;fill:url(#SVGID_1_);}
	.st1{fill:#FFFFFF;}
	.st2{font-family:'Arial-Black';}
	.st3{font-size:252.9996px;}
	.st4{fill:#C15B6A;}
	.st5{enable-background:new    ;}
	.st6{clip-path:url(#SVGID_3_);}
	.st7{clip-path:url(#SVGID_5_);fill:#D49E7B;}
	.st8{clip-path:url(#SVGID_5_);fill:#6D5F64;}
	.st9{clip-path:url(#SVGID_5_);fill:#3F4040;}
	.st10{clip-path:url(#SVGID_5_);fill:#414768;}
	.st11{clip-path:url(#SVGID_5_);fill:#565E84;}
	.st12{clip-path:url(#SVGID_5_);fill:#C9739F;}
	.st13{clip-path:url(#SVGID_5_);fill:#EFEFEF;}
	.st14{opacity:0.5;clip-path:url(#SVGID_7_);enable-background:new    ;}
	.st15{clip-path:url(#SVGID_9_);}
	.st16{clip-path:url(#SVGID_11_);fill:#786C66;}
	.st17{clip-path:url(#SVGID_7_);fill:#D48B5B;}
	.st18{clip-path:url(#SVGID_7_);fill:#5E3817;}
	.st19{clip-path:url(#SVGID_7_);fill:#221B16;}
	.st20{clip-path:url(#SVGID_7_);fill:#D49E7B;}
	.st21{clip-path:url(#SVGID_7_);fill:#9F6E4A;}
	.st22{opacity:0.5;clip-path:url(#SVGID_13_);enable-background:new    ;}
	.st23{clip-path:url(#SVGID_15_);}
	.st24{clip-path:url(#SVGID_17_);fill:#786C66;}
	.st25{clip-path:url(#SVGID_13_);fill:#8C777E;}
	.st26{clip-path:url(#SVGID_13_);fill:#5E3817;}
	.st27{clip-path:url(#SVGID_13_);fill:#8B8B8D;}
	.st28{clip-path:url(#SVGID_13_);fill:#B5B5B9;}
	.st29{clip-path:url(#SVGID_13_);fill:#2B3351;}
	.st30{clip-path:url(#SVGID_13_);fill:#FFFFFF;}
	.st31{clip-path:url(#SVGID_13_);fill:#8E705B;}
	.st32{clip-path:url(#SVGID_13_);fill:#D49E7B;}
</style>
<linearGradient id="SVGID_1_" gradientUnits="userSpaceOnUse" x1="33.0001" y1="162" x2="1022.2277" y2="162" gradientTransform="matrix(-1 0 0 1 1102 0)">
	<stop  offset="0" style="stop-color:#FFFFFF"/>
	<stop  offset="1" style="stop-color:#FF1D25"/>
</linearGradient>
<polygon class="st0" points="78,272 1069,278 1069,46 125.9,46 140.4,166 96.9,203 "/>
<text transform="matrix(1 0 0 1 219.3198 251.0698)"><tspan x="0" y="0" class="st1 st2 st3">TO</tspan><tspan x="393.5" y="0" class="st4 st2 st3">DO</tspan></text>
<g>
	<g class="st5">
		<g>
			<defs>
				<rect id="SVGID_2_" x="38" y="25" width="251.4" height="258"/>
			</defs>
			<clipPath id="SVGID_3_">
				<use xlink:href="#SVGID_2_"  style="overflow:visible;"/>
			</clipPath>
			<g class="st6">
				<defs>
					<rect id="SVGID_4_" x="-45.6" y="-69.4" width="368.1" height="476.3"/>
				</defs>
				<clipPath id="SVGID_5_">
					<use xlink:href="#SVGID_4_"  style="overflow:visible;"/>
				</clipPath>
				<path class="st7" d="M66.4,124L66.4,124c2.8,0.4,5.4-1.6,5.8-4.5l0.6-4.3c0.4-2.8-1.6-5.4-4.5-5.8c-2.8-0.4-5.4,1.6-5.8,4.5
					l-0.6,4.3C61.5,121,63.5,123.6,66.4,124"/>
				<path class="st8" d="M164.9,93.1c0,0-7.7,8.4-10.3,7.4c-2.6-1,3-14.5,5.8-12.3C163.2,90.4,164.9,93.1,164.9,93.1"/>
				<path class="st9" d="M63.6,279.1c0,0,89.3,3.4,138.4,3c62.1-0.4,87.2-10.2,50.1-14.1c-41.9-4.4-69.4-1.7-78.8-5.2
					c-9.3-3.4-64.8,2.7-73.4,2.8c-8.6,0-61.4,7.1-53.9,10.9C50,278.5,63.6,279.1,63.6,279.1"/>
				<path class="st10" d="M119.9,146.6c0,0,5.8,41.9,17.7,53.4c11.9,11.5,15.3,18.8,15.3,18.8s2,3.6,9.9-1
					c7.8-4.6,47.8-25.3,49.5-26.2c2.1-1.2,0.2-12.4-2.9-9.1c-3.1,3.3-10.8,5.9-13.9,5.9c-3.1,0-30.6,4.5-33.1,9.6
					c-1.2,2.5-3.4-4.9-3.4-5.9c0-1-1.4-17.1-3.4-19.8c-2-2.6,6.5,0-2.4-28.3c-8.9-28.3-33.9,0.6-33.9,0.6L119.9,146.6z"/>
				<path class="st11" d="M154.5,139.8c0,0,24.3,25.9-5.7,39.4c-11.5,5.1-13.5,5.7-16.2,8c-6.5,5.6-14.8,7.3-23.6,10.6
					c-4,1.5-1.2,5.9-1.5,12.5c-0.3,6.6-6.4,17-10,18.4c-3.6,1.3-9.7,19.2-12.1,23.4c-2.4,4.3-14,1-11.5-1.9
					c3.1-3.6,13.4-37,15.5-49.5c1.5-8.9,2.7-9.2,4.2-10.1c2.1-1.3,15.8-24.6,31-32.6c0.8-0.4,1.1-1.3,0.7-2
					c-1.4-2.6-4.2-8.3-4.2-10.9C121.1,141.7,153.6,135.6,154.5,139.8"/>
				<path class="st7" d="M120.4,106.1c0,0-6.2,24.7-12.2,26.9c-3.8,1.4-17.6-4.9-32.9-7c-8.6-1.2-9.2-2.8-9.2-2.8s-4.1-4.2-3.8-4.4
					c4.2-2.1-3.1-8.2,2.9-8.3c6-0.1,5.2-1.6,8.6-0.8c2.5,0.5,2.1,7.3,3.6,7.3c16.5,0.1,17.4-1.8,22.1-0.5c0.8,0.2,0.6-0.7,0.6-0.9
					c-0.8-11.2,1.3-10.1,4-22.5C104.5,90.8,125.4,91.3,120.4,106.1"/>
				<path class="st7" d="M164,78.3c0,0,18.3,9.4,20.1,15.5c1.8,6.1,4.2,29.5-0.5,47.4c-0.2,0.9,0.6,2.4,0.6,2.4s-1.3,12.5-5.3,12.9
					c-4,0.4-12.7,1.4-13.2-4.5c-0.5-5.9,4.5-7.9,6.7-9.4c2.2-1.4,2.7-6.7,2-10.6c-4.4-25.4-0.5-30.6-3.3-31.4
					c-2.8-0.8-19.8-7.3-21.5-8.9C148,90.1,158.3,74.9,164,78.3"/>
				<path class="st12" d="M115.9,58.7c-0.8,0.8-1.2,1.9-1.2,3.1c1.2,0.2,2.5-0.1,3.4-1c0.6-0.5,2.1-2.8,1.2-3.5
					C118.5,56.6,116.4,58.1,115.9,58.7"/>
				<path class="st13" d="M116.1,59c-1.3,0.5-2.5,0.9-4.1,0.9c0-0.4-0.1-1.4-0.1-1.8c1.2-0.3,2.4-0.7,3.5-1.1
					c1.1-0.5,2.2-1.1,3.3-1.7c0.5,0.9,0.4,1.4-0.3,2.2C117.7,58.1,117,58.6,116.1,59"/>
				<path class="st7" d="M142.1,75c-1.1-2.7,1.8-1.2-0.4-2.8c-3.9-2.8-6-7.5-4.2-10.6c1-1.8,1.4-7.3,2.5-8.7c3.1-3.9,4.4-8.3,1-13.1
					c-5.2-7.4-17-9.1-23.7-3.9c-3.2,2.5-5.8,6.4-5.3,9.7c0.1,0.5,0.2,3-0.2,4.1c-0.7,2.1-3.6,2.1-3.6,3.6c0,0.9,0.7,1.8,1.5,2.2
					c0.7,0.3,1.2,0.1,1.5,0.4c0.5,0.6-0.6,1.8-0.2,2.5c0.7,1.2,6.1-0.4,7.7-2.1c0,0,0,4.7-6.8,5.1c-0.3,0-0.7,0.4,0.1,0.9
					c0,0,0.5,0.4,0.7,1.4c0.4,2.9-0.5,1.5-0.5,3.6c0,1.5,2.1,1.5,2.5,1.5c6.9-0.8,6.8-1.2,6.8-1.2c-0.6,3.4,0.6,1.1,1.8,5.4
					c0.4,1.6-3.9,0.7-5.2,2.1c-1.8,1.9-0.2,14.5,1.5,16.8c4.4,6,21.2-4,23.2-10.4C143.6,78.9,142.2,75.3,142.1,75"/>
			</g>
			<g class="st6">
				<defs>
					<rect id="SVGID_6_" x="-45.6" y="-69.4" width="368.1" height="476.3"/>
				</defs>
				<clipPath id="SVGID_7_">
					<use xlink:href="#SVGID_6_"  style="overflow:visible;"/>
				</clipPath>
				<g class="st14">
					<g>
						<defs>
							<rect id="SVGID_8_" x="112" y="49.7" width="17.4" height="19.2"/>
						</defs>
						<clipPath id="SVGID_9_">
							<use xlink:href="#SVGID_8_"  style="overflow:visible;"/>
						</clipPath>
						<g class="st15">
							<defs>
								<rect id="SVGID_10_" x="112.3" y="49.7" width="17.1" height="19.1"/>
							</defs>
							<clipPath id="SVGID_11_">
								<use xlink:href="#SVGID_10_"  style="overflow:visible;"/>
							</clipPath>
							<path class="st16" d="M128.3,55.5c0,0,5,8.8-6.9,12.2c-11.9,3.3-8.9-1.5-8.7-2.1c0,0,0.4-1.6-0.2-2.4c0,0,8.2-1.1,9.5-6.3
								c0.8-3.5,4.1-6.1,4.1-6.1l2.5-1L128.3,55.5"/>
						</g>
					</g>
				</g>
				<path class="st17" d="M131.5,49.4c-0.1,0.2-0.1,0.4-0.3,0.5c-0.3,0.2-0.7,0.1-0.9-0.2c-0.2-0.3-0.2-0.7-0.2-1
					c0.1-1,0.6-2.7,1.4-3.4c0.2-0.2,0.5,0.3,0.8,0.3c1.3-0.3,1.1,0.9,0.6,1.4C132,47.6,131.8,48.4,131.5,49.4"/>
				<path class="st18" d="M134,40.1c-4.4,2.7-6.5,3.1-5,2.6c-1.8,0.6-3.8,0.9-5.6,0.3c-1.9-0.6-3.5-1.9-5.4-2.1
					c-1.5-0.2-2.9,0.3-4.4,0.3c-2.8,0-5.5-2.1-6.3-4.9c-0.7-2.8,0.6-5.9,3.1-7.4c0,0.4,0,0.8,0,1.2c0.5-0.6,1.1-1.1,1.6-1.7l0,0.6
					c0.9-1.1,1.7-2.1,2.6-3.2c-0.8,2.1,0.3,4.6,2.3,5.5c1.9,0.8,36.7-6.4,24,25.4c-1.4,3.5-3.2,7.4-3.1,11
					c-4.5-4.9-6.3-14.9-5.8-15.2c1.9-1.3,2.1-2.5,2.1-2.5c-1-0.9-0.9-2.5-2.1-1.7c-1.1,0.7-2.5,0-2.6,1.2c-0.2,2.2-0.9,3-1.4,3.8
					c-0.6,0.9-2.8,1.3-2.5,0.5c0.8-3.6,1.6-7.3,2.4-10.9"/>
				<path class="st17" d="M114.7,50.7c0.9,0.3,2,0.2,2.8-0.3c0.8-0.5,1.4-1.5,1.3-2.5c-0.1-1-1-1.8-1.9-1.9c-1.1,0-2,0.9-2.4,1.9
					c-0.3,1-0.2,1.7-0.1,2.8"/>
				<path class="st19" d="M118.7,49c0,0-0.3,0.2-0.7,0.5c-0.2,0.1-0.5,0.3-0.7,0.5c-0.1,0.1-0.3,0.2-0.4,0.2
					c-0.2,0.1-0.3,0.1-0.4,0.2c-0.3,0.1-0.6,0.2-0.8,0.2c-0.1,0-0.3,0-0.4,0c-0.1,0-0.2-0.1-0.4-0.1c-0.2-0.1-0.4-0.2-0.5-0.3
					c-0.1-0.1-0.2-0.2-0.2-0.2s0,0.1,0,0.3c0,0.2,0.2,0.4,0.4,0.6c0.1,0.1,0.2,0.2,0.4,0.3c0.2,0.1,0.4,0.2,0.6,0.2
					c0.4,0.1,0.9,0,1.2-0.2c0.2-0.1,0.4-0.2,0.5-0.3c0.2-0.1,0.3-0.2,0.4-0.4c0.3-0.2,0.5-0.5,0.6-0.8c0.1-0.2,0.2-0.5,0.3-0.6
					C118.7,49.1,118.7,49,118.7,49"/>
				<path class="st18" d="M120.2,34.2c0,0-0.2-0.1-0.4-0.2c-0.1-0.1-0.3-0.1-0.5-0.2c-0.2-0.1-0.4-0.2-0.6-0.4
					c-0.2-0.2-0.4-0.3-0.6-0.5c-0.2-0.2-0.4-0.4-0.5-0.7c-0.3-0.5-0.5-1.1-0.6-1.8c0-0.3,0-0.6,0-1c0.1-0.3,0.1-0.6,0.2-0.9
					c0.1-0.3,0.2-0.6,0.4-0.8c0.1-0.2,0.3-0.5,0.5-0.6c0.2-0.2,0.3-0.3,0.5-0.5c0.2-0.1,0.3-0.2,0.4-0.3c0.2-0.2,0.4-0.2,0.4-0.2
					s0,0-0.1,0c-0.1,0-0.2,0.1-0.3,0.1c-0.1,0.1-0.3,0.2-0.5,0.3c-0.2,0.1-0.4,0.3-0.6,0.4c-0.2,0.2-0.4,0.4-0.6,0.6
					c-0.2,0.2-0.3,0.5-0.5,0.8c-0.1,0.3-0.2,0.6-0.3,1c-0.1,0.3-0.1,0.7,0,1.1c0,0.4,0.1,0.7,0.2,1c0.1,0.3,0.3,0.6,0.5,0.9
					c0.2,0.3,0.4,0.5,0.6,0.7c0.2,0.2,0.4,0.4,0.7,0.5c0.2,0.1,0.4,0.2,0.6,0.3c0.2,0.1,0.4,0.1,0.5,0.2c0.1,0,0.3,0.1,0.3,0.1
					C120.1,34.2,120.2,34.2,120.2,34.2"/>
				<path class="st18" d="M114.2,40.5c0,0-0.2,0.1-0.4,0.2c-0.1,0.1-0.3,0.1-0.5,0.2c-0.2,0-0.4,0.1-0.7,0.1c-0.2,0-0.5,0-0.8,0
					c-0.3,0-0.6-0.1-0.9-0.1c-0.6-0.2-1.2-0.4-1.7-0.8c-0.3-0.2-0.5-0.4-0.7-0.7c-0.2-0.3-0.3-0.5-0.5-0.8c-0.1-0.3-0.2-0.6-0.3-0.8
					c-0.1-0.3-0.1-0.5-0.1-0.8c0-0.2,0-0.5,0-0.7c0-0.2,0-0.4,0.1-0.5c0.1-0.3,0.1-0.5,0.1-0.5s0,0-0.1,0.1c0,0.1-0.1,0.2-0.1,0.3
					c-0.1,0.1-0.1,0.3-0.2,0.5c0,0.2-0.1,0.4-0.1,0.7c0,0.3,0,0.5,0.1,0.8c0,0.3,0.1,0.6,0.3,0.9c0.1,0.3,0.3,0.6,0.5,0.9
					c0.2,0.3,0.5,0.6,0.7,0.8c0.3,0.2,0.6,0.4,0.9,0.6c0.3,0.1,0.6,0.2,1,0.3c0.3,0.1,0.6,0.1,0.9,0.1c0.3,0,0.6,0,0.8-0.1
					c0.3-0.1,0.5-0.1,0.7-0.2c0.2-0.1,0.4-0.2,0.5-0.2C114,40.7,114.1,40.6,114.2,40.5C114.2,40.5,114.2,40.5,114.2,40.5"/>
				<path class="st18" d="M114.6,39.1c0,0,0,0-0.1,0.1c0,0.1-0.1,0.2-0.2,0.3c-0.1,0.1-0.2,0.3-0.3,0.5c-0.1,0.2-0.3,0.3-0.4,0.5
					c-0.2,0.2-0.4,0.4-0.6,0.5c-0.2,0.2-0.5,0.3-0.8,0.5c-0.3,0.1-0.6,0.2-0.9,0.3c-0.3,0.1-0.7,0.1-1,0.1c-0.3,0-0.7-0.1-1-0.1
					c-0.3-0.1-0.6-0.2-0.9-0.4c-0.3-0.2-0.5-0.3-0.7-0.5c-0.2-0.2-0.4-0.4-0.6-0.6c-0.2-0.2-0.3-0.4-0.4-0.5
					c-0.1-0.2-0.2-0.3-0.3-0.5c-0.1-0.1-0.1-0.2-0.1-0.3c0-0.1,0-0.1,0-0.1s0,0,0,0.1c0,0.1,0,0.2,0.1,0.3c0,0.1,0.1,0.3,0.2,0.5
					c0.1,0.2,0.2,0.4,0.4,0.6c0.3,0.4,0.8,0.8,1.3,1.1c0.3,0.2,0.6,0.3,0.9,0.4c0.3,0.1,0.7,0.2,1,0.2c0.7,0,1.4-0.2,2-0.4
					c0.6-0.3,1-0.7,1.4-1.1c0.2-0.2,0.3-0.4,0.4-0.6c0.1-0.2,0.2-0.3,0.2-0.5c0.1-0.1,0.1-0.2,0.1-0.3
					C114.6,39.1,114.6,39.1,114.6,39.1"/>
				<path class="st18" d="M141.5,38.6c0,0,0.1-0.1,0.3-0.2c0.2-0.1,0.5-0.3,0.8-0.6c0.3-0.3,0.6-0.7,0.8-1.1c0.2-0.5,0.4-1,0.5-1.6
					c0-0.3,0-0.6,0-0.8c0-0.3-0.1-0.5-0.1-0.8c-0.1-0.5-0.3-0.9-0.5-1.3c-0.2-0.4-0.4-0.6-0.6-0.8c-0.2-0.2-0.3-0.3-0.3-0.3
					s0.1,0.1,0.2,0.3c0.1,0.2,0.3,0.5,0.5,0.8c0.2,0.4,0.3,0.8,0.4,1.3c0,0.2,0.1,0.5,0.1,0.7c0,0.3,0,0.5,0,0.8
					c-0.1,0.5-0.2,1-0.4,1.5c-0.2,0.4-0.4,0.8-0.7,1.2c-0.2,0.3-0.5,0.6-0.7,0.7C141.6,38.5,141.5,38.6,141.5,38.6"/>
				<path class="st18" d="M140.1,38.9c0,0,0.1,0,0.3,0.1c0.2,0,0.4,0.1,0.8,0.1c0.3,0,0.7,0,1.1-0.1c0.4-0.1,0.8-0.3,1.2-0.5
					c0.2-0.1,0.4-0.2,0.5-0.4c0.2-0.1,0.3-0.3,0.4-0.4c0.3-0.3,0.4-0.6,0.6-0.9c0.1-0.3,0.2-0.5,0.2-0.7c0-0.2,0-0.3,0-0.3
					s0,0.1-0.1,0.3c-0.1,0.2-0.2,0.4-0.3,0.7c-0.2,0.3-0.4,0.5-0.6,0.8c-0.1,0.1-0.3,0.3-0.4,0.4c-0.2,0.1-0.3,0.2-0.5,0.3
					c-0.3,0.2-0.7,0.4-1.1,0.5c-0.4,0.1-0.7,0.2-1,0.2c-0.3,0-0.6,0-0.7,0C140.2,38.9,140.1,38.9,140.1,38.9"/>
				<path class="st20" d="M130.5,46.3c0.8-0.7,1.8-1.3,2.8-0.9c0.6,0.3,1,0.9,1.2,1.5c0.2,0.6,0.1,1.2,0.1,1.9
					c-0.3,2.1-1.3,4.1-2.8,5.7c-0.6,0.6-1.5,1.2-2.3,1c-0.8-0.3-1-1.2-1.1-2c-0.1-1.5,1-3,1.1-4.5C129.6,47.8,129.5,47.2,130.5,46.3
					"/>
				<path class="st21" d="M132,49.4c0.1,0,0.3,0,0.4-0.1l0,0l0,0c0.4-0.2,0.6-0.6,0.6-1.1c0-0.4-0.3-0.8-0.8-1
					c-0.2-0.1-0.5-0.1-0.7,0c-0.2,0.1-0.4,0.1-0.6,0.3c-0.2,0.1-0.3,0.3-0.4,0.5c0,0.1-0.1,0.1-0.1,0.2c0,0,0,0.1-0.1,0.1
					c0,0.1-0.1,0.2-0.1,0.3c-0.1,0.4,0,0.8,0,1.2c0.6,2.7,0.8,3.1,0.3,1.1c0,0.2,0.1,0.4,0.1,0.5c0,0.2,0,0.3-0.1,0.5
					c-0.2,0.3-0.5,0.6-0.9,0.5c0.2,0.1,0.4,0.1,0.6,0c0.2-0.1,0.4-0.2,0.5-0.4c0.1-0.2,0.2-0.4,0.2-0.6c0-0.2,0-0.4,0-0.6
					c-0.1-0.4-0.2-0.8-0.2-1.1c-0.1-0.4-0.1-0.7,0-1.1c0-0.1,0-0.2,0.1-0.2c0,0,0-0.1,0-0.1c0,0,0-0.1,0.1-0.1
					c0.1-0.1,0.2-0.3,0.3-0.4c0.1-0.1,0.3-0.2,0.4-0.2c0.2,0,0.3-0.1,0.5,0c0.3,0.1,0.6,0.3,0.6,0.7c0.1,0.3-0.1,0.7-0.4,0.9l0,0
					C132.3,49.3,132.2,49.4,132,49.4"/>
				<path class="st21" d="M112.5,54.7c0,0-0.1-0.1-0.2-0.2c-0.1,0-0.2-0.1-0.3-0.1c-0.1,0-0.2,0-0.3,0c-0.2,0.1-0.4,0.2-0.5,0.3
					c-0.1,0.1-0.1,0.3-0.1,0.3s0.1,0,0.3-0.1c0.1,0,0.3-0.1,0.4-0.1c0.2,0,0.3-0.1,0.4-0.1C112.4,54.8,112.5,54.7,112.5,54.7"/>
			</g>
			<g class="st6">
				<defs>
					<rect id="SVGID_12_" x="-45.6" y="-69.4" width="368.1" height="476.3"/>
				</defs>
				<clipPath id="SVGID_13_">
					<use xlink:href="#SVGID_12_"  style="overflow:visible;"/>
				</clipPath>
				<g class="st22">
					<g>
						<defs>
							<rect id="SVGID_14_" x="110.8" y="53.3" width="13.2" height="4.8"/>
						</defs>
						<clipPath id="SVGID_15_">
							<use xlink:href="#SVGID_14_"  style="overflow:visible;"/>
						</clipPath>
						<g class="st23">
							<defs>
								<rect id="SVGID_16_" x="111" y="53.3" width="12.6" height="4.4"/>
							</defs>
							<clipPath id="SVGID_17_">
								<use xlink:href="#SVGID_16_"  style="overflow:visible;"/>
							</clipPath>
							<path class="st24" d="M111.4,56.2c0,0-0.1,0.8-0.4,1.4c0,0,3.7,1,7.3-2.9c2.4-2.2,3.7,3,3.7,2.2c0-1.1,1.6-3.5,1.6-3.5
								s-2.5-0.2-3.6-0.2c-3.5,0-3.8,0.3-4.5,1.2c-0.2,0.3-0.4,0.5-0.7,0.6C114.1,55.6,112.4,56.4,111.4,56.2"/>
						</g>
					</g>
				</g>
				<path class="st25" d="M141.5,72.4c-5.5,2.1-8.7,20-16.6,19.6c-9-0.4-3.7-18-3.7-18c-11.4,1-12.1,2.8-15.2,5.9
					c-4,4-3.4,13.3-3.6,19c0,0.7,2.5,0.1,5.1-1.4c0.6-0.4,0.7,7.2,0.8,7.9c2.5,17.9,11.4,29.6,11,37.7c-0.2,5.1,37.9,1.9,38.3-4
					c0.5-6.2-3.4-15.3-3.7-16.7c-0.2-0.7-2.3-18.5-3.5-26.7c1,1.8,2.6,2.5,3.6,4.3c1.7,3,17-17.5,15.7-18.4
					C156.5,73.1,152.3,68.3,141.5,72.4"/>
				<path class="st26" d="M119.5,44.6c0,0-0.1-0.1-0.2-0.2c-0.1-0.1-0.3-0.3-0.6-0.4c-0.1-0.1-0.3-0.2-0.4-0.2
					c-0.1-0.1-0.3-0.2-0.5-0.3c-0.3-0.2-0.8-0.3-1.2-0.3c-0.2,0-0.4,0-0.6,0c-0.2,0-0.4,0.1-0.6,0.1c-0.4,0.1-0.7,0.3-0.9,0.5
					c-0.3,0.2-0.4,0.4-0.5,0.6c-0.1,0.2-0.1,0.3-0.1,0.3l0.1,0c0,0,0.1-0.1,0.2-0.2c0.1-0.1,0.3-0.2,0.6-0.3
					c0.3-0.1,0.6-0.2,0.9-0.3c0.2-0.1,0.3-0.1,0.5-0.2c0.2-0.1,0.3-0.1,0.5-0.1c0.4,0,0.7,0,1,0.1c0.3,0.1,0.6,0.3,0.9,0.4
					C119.2,44.4,119.4,44.6,119.5,44.6L119.5,44.6z"/>
				<path class="st27" d="M206.1,185.1c0,0,4.2-2.9,4.4-3.9c0.2-0.9,8.3,10.5,7.7,11.3c-0.6,0.8-3.7-0.1-5.5,0s-4.6,2.2-4.9,1.4
					C207.4,193.1,205,185.4,206.1,185.1"/>
				<path class="st28" d="M208.8,182.2c0,0,7.2,8.3,7.7,11.4c0.5,3.1,29.6-1,33.8-0.8c5.1,0.2,3.2-7.1-6.7-10.1
					c-7.3-2.2-8.2,0.2-10.9-0.7c-2.7-1-8.5-4.1-9.9-6.2c-1.5-2.1-6.9-4.4-8.9-3.2C211.9,173.7,208.8,182.2,208.8,182.2"/>
				<path class="st29" d="M209.9,193.2c0,0-2.1-8.8-4-8.7c-1.9,0.1-7,2.4-7.4,3.1c-0.6,1,1.2,10.2,2.2,10.2
					C201.6,197.8,209.6,194.6,209.9,193.2"/>
				<path class="st27" d="M84.5,252.5c0,0-1.1,5.1-0.6,6c0.5,0.9-14.1-4.2-14.3-5.3c-0.1-1.1,2.9-2.2,4.3-3.3c1.4-1.1,2-4.7,2.9-4.1
					C77.7,246.2,85.2,251.5,84.5,252.5"/>
				<path class="st28" d="M85.2,258.8c-0.1-6.7-5.7-2.3-11.3-8.2c-2.5-2.6-6.7,8-8.7,7.2c-2-0.8-13.8,0.2-15.5-0.6
					c-1.7-0.8-7.1,1.5-3,5.7c4.1,4.2,13.2,9.9,17.9,9.6c4.7-0.4,11.1-1.1,14.5,1.1c3.4,2.3,6.8-1.1,6.4-8L85.2,258.8z"/>
				<path class="st29" d="M75.4,248.4c0,0,9.3,5.7,10.5,4.3c1.2-1.4,2.6-6.8,2.3-7.6c-0.5-1.2-10-7.5-10.6-6.8
					C77,238.9,74.4,247.1,75.4,248.4"/>
				<path class="st30" d="M76.2,255c0,0-0.3-0.2-0.8-0.5c-0.5-0.3-1.4-0.8-2.5-1.2c-1.1-0.4-2.6-0.7-4.2-0.3
					c-0.4,0.1-0.8,0.2-1.2,0.6c-0.2,0.2-0.2,0.5-0.1,0.8c0.1,0.2,0.3,0.4,0.5,0.6c0.7,0.6,1.6,1.1,2.5,1.5c0.9,0.4,1.9,0.8,3,1
					c0.3,0.1,0.5,0.1,0.8,0.1c0.3,0,0.6,0.1,0.9,0c0.1,0,0.2-0.1,0.3-0.2c0.1-0.1,0.2-0.2,0.1-0.4c0-0.3-0.2-0.4-0.3-0.5
					c-0.3-0.2-0.5-0.3-0.8-0.4c-1.1-0.5-2.2-0.8-3.4-1.1c-1.2-0.3-2.4-0.5-3.7-0.5c-0.3,0-0.7,0-1,0.1c-0.3,0.1-0.8,0.2-0.9,0.7
					c-0.2,0.5,0,0.9,0.2,1.1c0.2,0.3,0.5,0.5,0.7,0.8c1.1,0.9,2.4,1.3,3.7,1.6c0.7,0.1,1.3,0.2,2,0.2c0.4,0,0.7,0,1.1-0.1
					c0.1,0,0.2-0.1,0.3-0.3c0.1-0.1,0.1-0.2,0.1-0.3c0-0.1-0.1-0.2-0.1-0.2c-0.2-0.2-0.3-0.3-0.5-0.4c-0.6-0.3-1.3-0.5-1.9-0.7
					c-0.7-0.2-1.3-0.4-2-0.5c-1.3-0.3-2.7-0.4-4.1-0.3c-0.3,0-0.7,0.1-1,0.2c-0.2,0.1-0.4,0.1-0.5,0.3c-0.2,0.1-0.4,0.4-0.3,0.7
					c0,0.3,0.2,0.4,0.3,0.6c0.1,0.1,0.3,0.3,0.4,0.4c0.3,0.2,0.5,0.4,0.8,0.6c1.1,0.7,2.3,1.3,3.6,1.8c0.6,0.2,1.3,0.4,2,0.4
					c0.2,0,0.3,0,0.5,0c0.1,0,0.2,0,0.3-0.1c0.1-0.1,0.2-0.2,0.3-0.4c0-0.3-0.2-0.5-0.3-0.6c-0.1-0.1-0.3-0.2-0.4-0.3
					c-1.1-0.7-2.4-1-3.6-1.2c-1.2-0.2-2.4-0.2-3.6-0.1c-0.3,0-0.6,0-0.9,0.1c-0.3,0.1-0.6,0.1-0.9,0.3c-0.1,0.1-0.3,0.3-0.3,0.5
					c0,0.2,0.1,0.4,0.1,0.5c0.2,0.3,0.4,0.5,0.6,0.6c0.9,0.7,1.9,1.1,2.9,1.4c1,0.3,1.9,0.6,2.9,0.6c0.2,0,0.5,0,0.7-0.3
					c0.1-0.1,0.1-0.3,0-0.5c-0.1-0.1-0.2-0.2-0.2-0.3c-0.4-0.3-0.7-0.5-1.1-0.6c-1.5-0.6-3-0.8-4.2-0.8c-1.2,0-2.1,0.1-2.7,0.3
					c-0.6,0.2-0.9,0.3-0.9,0.3s0.3-0.1,0.9-0.2c0.6-0.1,1.5-0.3,2.7-0.2c1.2,0.1,2.6,0.3,4.1,0.9c0.4,0.2,0.7,0.4,1,0.6
					c0.2,0.1,0.3,0.3,0.2,0.4c-0.1,0.1-0.3,0.1-0.5,0.2c-0.9,0-1.8-0.3-2.7-0.6c-0.9-0.4-1.9-0.8-2.7-1.4c-0.4-0.3-0.9-0.8-0.5-1
					c0.4-0.2,1-0.3,1.5-0.3c1.1,0,2.3,0,3.5,0.2c1.2,0.2,2.4,0.5,3.4,1.1c0.1,0.1,0.2,0.2,0.3,0.3c0.1,0.1,0.1,0.2,0.1,0.2
					c0,0,0,0-0.1,0c-0.1,0-0.3,0-0.4,0c-0.6,0-1.2-0.2-1.8-0.4c-1.2-0.4-2.4-1-3.4-1.7c-0.5-0.3-1.2-0.8-1.3-1.1
					c0-0.1,0.2-0.3,0.5-0.4c0.3-0.1,0.6-0.1,0.9-0.2c1.3-0.1,2.6,0.1,3.9,0.3c0.6,0.1,1.3,0.3,1.9,0.5c0.6,0.2,1.3,0.4,1.8,0.7
					c0.1,0.1,0.3,0.2,0.3,0.2c0,0,0,0,0,0c0,0,0-0.1,0-0.1c0,0,0,0-0.1,0c-0.2,0.1-0.6,0.1-0.9,0.1c-0.6,0-1.3-0.1-1.9-0.2
					c-1.3-0.2-2.5-0.7-3.5-1.5c-0.2-0.2-0.5-0.4-0.6-0.6c-0.2-0.2-0.2-0.5-0.2-0.7c0.1-0.2,0.3-0.3,0.6-0.4c0.3-0.1,0.6-0.1,0.9-0.1
					c1.2,0,2.4,0.2,3.6,0.5c1.2,0.3,2.3,0.6,3.4,1c0.5,0.2,1.2,0.6,0.8,0.7c-0.4,0.1-1,0-1.5-0.1c-1-0.2-2-0.6-3-0.9
					c-0.9-0.4-1.8-0.8-2.5-1.4c-0.3-0.3-0.6-0.7-0.4-1c0.2-0.3,0.7-0.4,1-0.5c1.6-0.4,3-0.2,4.1,0.2c1.1,0.3,1.9,0.8,2.5,1.1
					C75.9,254.8,76.2,255,76.2,255"/>
				<path class="st30" d="M223.9,190.6c0,0,0.2,0.3,0.5,0.7c0.4,0.5,0.9,1.1,1.8,1.8c0.8,0.7,1.9,1.5,3.4,2c0.4,0.1,0.7,0.3,1.2,0.2
					c0.1,0,0.3-0.1,0.3-0.3c0.1-0.1,0-0.3,0-0.4c-0.1-0.2-0.2-0.4-0.3-0.6c-0.5-0.7-1.1-1.4-1.7-2.1c-0.7-0.7-1.4-1.3-2.2-1.9
					c-0.4-0.3-0.8-0.6-1.4-0.8c-0.1,0-0.2,0-0.3,0c0,0-0.1,0-0.2,0.1c-0.1,0.1-0.1,0.2-0.1,0.2c0,0.3,0.1,0.3,0.2,0.5
					c0.2,0.2,0.4,0.4,0.5,0.6c0.8,0.8,1.6,1.5,2.5,2.1c0.9,0.7,1.9,1.3,2.9,1.9c0.3,0.1,0.5,0.3,0.8,0.4c0.1,0,0.3,0.1,0.5,0.1
					c0.2,0,0.4,0,0.6-0.1c0.2-0.2,0.3-0.4,0.3-0.6c0-0.2-0.1-0.4-0.1-0.5c-0.1-0.3-0.3-0.6-0.4-0.9c-0.7-1-1.7-1.9-2.7-2.6
					c-0.5-0.4-1-0.7-1.6-1c-0.3-0.1-0.6-0.3-1-0.4c-0.1,0-0.1,0-0.2,0c-0.1,0-0.2,0-0.3,0.2c-0.1,0.2,0,0.3,0,0.3
					c0,0.1,0,0.1,0.1,0.2c0.1,0.2,0.2,0.3,0.3,0.4c0.9,0.9,1.9,1.7,2.9,2.4c1,0.7,2.1,1.4,3.3,1.9c0.3,0.1,0.6,0.2,0.9,0.3
					c0.2,0,0.3,0.1,0.5,0.1c0.1,0,0.2,0,0.3-0.1c0.1-0.1,0.3-0.2,0.3-0.4c0-0.3-0.1-0.5-0.1-0.6c-0.1-0.2-0.2-0.3-0.3-0.4
					c-0.2-0.3-0.4-0.5-0.6-0.8c-0.8-1-1.6-1.9-2.5-2.7c-0.5-0.4-0.9-0.8-1.5-1.1c-0.1-0.1-0.3-0.1-0.5-0.2c-0.1,0-0.2-0.1-0.3,0
					c-0.1,0-0.2,0-0.2,0.1c-0.1,0.1-0.2,0.2-0.2,0.3c0,0.3,0.1,0.4,0.2,0.6c0.1,0.1,0.2,0.3,0.3,0.4c0.8,1,1.7,1.6,2.7,2.3
					c1,0.6,1.9,1.1,2.9,1.6c0.5,0.2,1,0.4,1.6,0.5c0.1,0,0.2,0,0.3,0c0.1,0,0.2-0.1,0.2-0.2c0.1-0.2,0-0.4,0-0.5
					c-0.1-0.3-0.3-0.5-0.4-0.7c-0.6-0.8-1.3-1.5-2-2.1c-0.7-0.6-1.4-1.2-2.2-1.6c-0.1,0-0.2-0.1-0.3-0.1c-0.1,0-0.2-0.1-0.4,0
					c-0.1,0.1-0.1,0.2-0.1,0.2c0,0.1,0,0.1,0,0.2c0,0.1,0.1,0.2,0.2,0.3c0.2,0.3,0.5,0.6,0.8,0.9c1.1,1,2.3,1.7,3.2,2.3
					c1,0.5,1.8,0.8,2.4,0.9c0.6,0.2,0.9,0.2,0.9,0.2s-0.3-0.1-0.9-0.2c-0.6-0.2-1.4-0.5-2.3-1c-0.9-0.5-2.1-1.3-3.1-2.3
					c-0.3-0.3-0.5-0.6-0.7-0.9c-0.1-0.1-0.1-0.2-0.1-0.2c0-0.1,0-0.2,0-0.1c0,0,0.3,0,0.5,0.1c0.7,0.4,1.4,0.9,2.1,1.5
					c0.7,0.6,1.4,1.3,1.9,2.1c0.3,0.4,0.6,1,0.2,0.9c-0.4,0-0.9-0.3-1.4-0.5c-1-0.4-1.9-1-2.8-1.6c-0.9-0.6-1.8-1.3-2.5-2.2
					c-0.1-0.1-0.2-0.2-0.2-0.3c-0.1-0.1-0.1-0.3-0.1-0.2c0,0,0,0.1-0.1,0.1c0,0,0,0,0,0c0,0,0,0,0.1,0c0.1,0,0.2,0.1,0.4,0.2
					c0.5,0.3,1,0.6,1.4,1c0.9,0.8,1.7,1.7,2.4,2.6c0.2,0.2,0.4,0.5,0.5,0.7c0.1,0.1,0.2,0.2,0.2,0.4c0.1,0.1,0.1,0.2,0.1,0.3
					c0,0,0,0,0,0c0,0-0.1,0-0.1,0c-0.1,0-0.2,0-0.4-0.1c-0.3-0.1-0.6-0.2-0.8-0.3c-1.1-0.5-2.2-1.1-3.2-1.9c-1-0.7-2-1.5-2.8-2.3
					c-0.1-0.1-0.2-0.2-0.2-0.3c0,0,0-0.1,0,0.1c-0.1,0.1-0.1,0.1-0.1,0.1c0,0,0,0,0,0c0.2,0,0.5,0.2,0.8,0.3c0.5,0.3,1,0.6,1.5,0.9
					c1,0.7,1.9,1.5,2.6,2.4c0.2,0.2,0.3,0.5,0.4,0.7c0.1,0.2,0.1,0.5,0,0.5c0,0-0.1,0-0.3,0c-0.1,0-0.2,0-0.4-0.1
					c-0.2-0.1-0.5-0.2-0.8-0.3c-1-0.5-2-1.2-2.9-1.8c-0.9-0.7-1.8-1.3-2.5-2.1c-0.2-0.2-0.4-0.4-0.5-0.6c-0.1-0.1-0.1-0.2-0.1-0.2
					c0,0-0.1,0.1,0,0.1c0,0,0.1,0,0.1,0c0.4,0.1,0.9,0.4,1.3,0.7c0.8,0.6,1.5,1.2,2.2,1.9c0.7,0.6,1.3,1.3,1.7,2
					c0.2,0.3,0.4,0.8,0.1,0.9c-0.3,0.1-0.7,0-1.1-0.1c-1.4-0.4-2.6-1.2-3.4-1.9c-0.8-0.7-1.4-1.3-1.8-1.8
					C224.1,190.9,223.9,190.6,223.9,190.6"/>
				<path class="st31" d="M72.7,121.5c-0.4-0.1-0.8-0.3-1.1-0.6c-0.3-0.3-0.5-0.7-0.6-1.1c-0.2-0.9,0-1.7,0.2-2.6
					c0.3-0.8,0.6-1.7,0.8-2.6c0.2-0.9,0.1-1.9-0.5-2.7l-0.1-0.1l-0.1,0.1c-0.4,0.3-0.7,0.5-1.1,0.7c-0.4,0.2-0.8,0.4-1.3,0.5
					c-0.2,0-0.4,0.1-0.7,0.1c-0.2,0-0.4,0-0.7-0.1c-0.4-0.1-0.9-0.3-1.3-0.5c0.4,0.2,0.8,0.4,1.3,0.6c0.4,0.1,0.9,0.2,1.4,0.1
					c0.9-0.1,1.8-0.6,2.5-1.2l-0.2,0c0.2,0.3,0.4,0.8,0.4,1.2c0,0.2,0,0.4,0,0.6c0,0.2,0,0.4-0.1,0.6c-0.2,0.9-0.5,1.7-0.8,2.5
					c-0.1,0.4-0.2,0.9-0.3,1.3c0,0.2,0,0.5,0,0.7c0,0.2,0.1,0.5,0.1,0.7c0.1,0.5,0.4,0.9,0.7,1.2C71.8,121.2,72.2,121.4,72.7,121.5"
					/>
				<path class="st32" d="M71.5,111.8c0,0-2.7,2.2-4.5,1c-1.7-1.2-0.7-1.8-0.2-1.8c0.5,0,2.4-1,3-1.1
					C70.4,109.8,72.8,110.6,71.5,111.8"/>
				<path class="st31" d="M66.1,112.3c0,0,0,0-0.1-0.1c0-0.1,0-0.2,0-0.3c0.1-0.3,0.5-0.4,0.9-0.6c0.4-0.2,0.7-0.4,1-0.6
					c0.3-0.2,0.4-0.3,0.4-0.3s-0.2,0.1-0.5,0.2c-0.3,0.1-0.7,0.3-1.1,0.5c-0.2,0.1-0.4,0.2-0.5,0.3c-0.2,0.1-0.3,0.3-0.4,0.5
					c0,0.2,0,0.3,0.1,0.4C66.1,112.3,66.1,112.3,66.1,112.3"/>
			</g>
		</g>
	</g>
</g>
</svg>
